<svg width="32" height="33" viewBox="0 0 32 33" fill="none" xmlns="http://www.w3.org/2000/svg">
<path d="M16 22.1471C12.8812 22.1471 10.353 19.6188 10.353 16.5C10.353 13.3812 12.8812 10.8529 16 10.8529C19.1188 10.8529 21.6471 13.3812 21.6471 16.5C21.6471 19.6188 19.1188 22.1471 16 22.1471Z" fill="#AE9AFF"/>
<path d="M5.10548 18.7821C3.48683 19.0623 2.37733 20.5973 2.99867 22.0912C3.86615 24.1768 5.2501 26.0349 7.04429 27.487C9.60985 29.5631 12.8458 30.6725 16.1701 30.6156C19.4945 30.5586 22.689 29.339 25.1793 27.1761C26.9207 25.6636 28.2378 23.7591 29.0306 21.6451C29.5985 20.1309 28.435 18.6348 26.8074 18.4102C25.1798 18.1857 23.7185 19.3487 22.9145 20.7562C22.4787 21.519 21.913 22.2111 21.2353 22.7998C19.8065 24.0408 17.9736 24.7405 16.0663 24.7732C14.1589 24.8058 12.3023 24.1694 10.8303 22.9781C10.132 22.413 9.54208 21.7407 9.07942 20.9932C8.22596 19.6142 6.72414 18.5019 5.10548 18.7821Z" fill="#AE9AFF"/>
<path d="M30.0084 17.9048C30.0805 17.3399 30.1176 16.7644 30.1176 16.1805C30.1176 8.55998 23.797 2.38235 16 2.38235C8.20301 2.38235 1.88232 8.55998 1.88232 16.1805C1.88232 16.9299 1.94345 17.6653 2.06111 18.3824C2.70956 17.5147 3.72163 16.8954 4.8148 16.707C5.99757 16.5031 7.07252 16.7835 7.9814 17.3076C7.92771 16.9394 7.89992 16.5631 7.89992 16.1805C7.89992 11.8082 11.5265 8.26375 16 8.26375C20.4735 8.26375 24.1 11.8082 24.1 16.1805C24.1 16.4687 24.0842 16.7534 24.0535 17.0337C24.9432 16.4788 26.0077 16.1617 27.1972 16.3252C28.2962 16.4761 29.3294 17.0602 30.0084 17.9048Z" fill="#5429FF"/>
</svg>
